<svg id="Layer_1" data-name="Layer 1" xmlns="http://www.w3.org/2000/svg" viewBox="0 0 899.32 276.34"><defs><style>.cls-1{fill:#b0263d;}.cls-2{fill:#231f20;}.cls-3{fill:#fff;}.cls-4,.cls-5{fill:none;stroke:#231f20;}.cls-4{stroke-width:0.86px;}.cls-5{stroke-width:0.43px;}</style></defs><title>HHI-black</title><path d="M348.61,104.69V85.09H326.56v19.6h-9.94V58h9.94V76.34h22.05V58h10v46.7Z" transform="translate(-25.8 -24.9)"/><path d="M409.79,104.69l-2.87-7.91h-20L384,104.69H372.62L390.68,58h12.46l18,46.7ZM396.91,67.94,389.63,88h14.56Z" transform="translate(-25.8 -24.9)"/><path d="M461.66,104.69,452.49,88.1h-7.28v16.59h-9.94V58h21.84c9.73,0,15.68,6.37,15.68,15.05,0,8.26-5.18,12.67-10.22,13.86l10.5,17.78Zm1-31.64c0-3.92-3-6.3-7-6.3H445.21v12.6h10.43C459.63,79.35,462.64,77,462.64,73Z" transform="translate(-25.8 -24.9)"/><path d="M502.47,104.69,484.41,58h11.34l13,35.91L521.58,58h11.34l-18,46.7Z" transform="translate(-25.8 -24.9)"/><path d="M576,104.69l-2.87-7.91h-20l-2.94,7.91H538.8L556.86,58h12.46l18,46.7ZM563.09,67.94,555.81,88h14.56Z" transform="translate(-25.8 -24.9)"/><path d="M627.84,104.69,618.67,88.1h-7.28v16.59h-9.94V58h21.84C633,58,639,64.37,639,73c0,8.26-5.18,12.67-10.22,13.86l10.5,17.78Zm1-31.64c0-3.92-3-6.3-7-6.3H611.39v12.6h10.43C625.81,79.35,628.82,77,628.82,73Z" transform="translate(-25.8 -24.9)"/><path d="M656.26,104.69V58h18.41c14.63,0,24.78,9.31,24.78,23.38s-10.15,23.31-24.78,23.31Zm33-23.31c0-8.26-5-14.63-14.63-14.63H666.2V95.94h8.47C683.91,95.94,689.3,89.29,689.3,81.38Z" transform="translate(-25.8 -24.9)"/><path d="M348.61,186.69v-19.6H326.56v19.6h-9.94V140h9.94v18.34h22.05V140h10v46.7Z" transform="translate(-25.8 -24.9)"/><path d="M376,168.07V140h10.08v27.72c0,6.51,3.78,11,11,11s10.92-4.48,10.92-11V140h10.15v28c0,11.62-6.86,19.53-21.07,19.53S376,179.55,376,168.07Z" transform="translate(-25.8 -24.9)"/><path d="M476.08,186.69V154l-13.16,32.69h-4.34L445.42,154v32.69h-9.94V140h13.93l11.34,28.21L472.09,140h14v46.7Z" transform="translate(-25.8 -24.9)"/><path d="M535.72,186.69l-2.87-7.91h-20l-2.94,7.91H498.55L516.61,140h12.46l18,46.7Zm-12.88-36.75L515.56,170h14.56Z" transform="translate(-25.8 -24.9)"/><path d="M591.79,186.69l-22.26-30.45v30.45h-9.94V140h10.22l21.63,29.33V140h9.94v46.7Z" transform="translate(-25.8 -24.9)"/><path d="M618.81,186.69V140h9.94v46.7Z" transform="translate(-25.8 -24.9)"/><path d="M657,186.69V148.75H643.3V140h37.24v8.75H667v37.94Z" transform="translate(-25.8 -24.9)"/><path d="M722.83,186.69,720,178.78h-20L697,186.69H685.66L703.72,140h12.46l18,46.7Zm-12.88-36.75L702.67,170h14.56Z" transform="translate(-25.8 -24.9)"/><path d="M773.09,186.69l-9.17-16.59h-7.28v16.59h-9.94V140h21.84c9.73,0,15.68,6.37,15.68,15.05,0,8.26-5.18,12.67-10.22,13.86l10.5,17.78Zm1-31.64c0-3.92-3-6.3-7-6.3H756.63v12.6h10.43C771.06,161.35,774.07,159,774.07,155Z" transform="translate(-25.8 -24.9)"/><path d="M799.89,186.69V140h9.94v46.7Z" transform="translate(-25.8 -24.9)"/><path d="M859.47,186.69l-2.87-7.91h-20l-2.94,7.91H822.29L840.35,140h12.46l18,46.7Zm-12.88-36.75L839.3,170h14.56Z" transform="translate(-25.8 -24.9)"/><path d="M915.54,186.69l-22.26-30.45v30.45h-9.94V140h10.22l21.63,29.33V140h9.94v46.7Z" transform="translate(-25.8 -24.9)"/><path d="M316.62,268.69V222h9.94v46.7Z" transform="translate(-25.8 -24.9)"/><path d="M376,268.69l-22.26-30.45v30.45h-9.94V222H354l21.63,29.33V222h9.94v46.7Z" transform="translate(-25.8 -24.9)"/><path d="M402.79,268.69V222h9.94v46.7Z" transform="translate(-25.8 -24.9)"/><path d="M440.73,268.69V230.75H427.08V222h37.24v8.75H450.74v37.94Z" transform="translate(-25.8 -24.9)"/><path d="M478.67,268.69V222h9.94v46.7Z" transform="translate(-25.8 -24.9)"/><path d="M538,268.69l-2.87-7.91h-20l-2.94,7.91H500.86L518.92,222h12.46l18,46.7Zm-12.88-36.75L517.87,252h14.56Z" transform="translate(-25.8 -24.9)"/><path d="M568,268.69V230.75H554.33V222h37.24v8.75H578v37.94Z" transform="translate(-25.8 -24.9)"/><path d="M605.92,268.69V222h9.94v46.7Z" transform="translate(-25.8 -24.9)"/><path d="M646.17,268.69,628.11,222h11.34l13,35.91L665.29,222h11.34l-18,46.7Z" transform="translate(-25.8 -24.9)"/><path d="M688.94,268.69V222h33v8.75h-23.1v9.87H721.5v8.75H698.88v10.57H722v8.75Z" transform="translate(-25.8 -24.9)"/><path class="cls-1" d="M27.41,26.5H256.73v86.57c0,39.65-14.79,123.77-113.8,186.36,0,0-107.31-44.77-115.52-186.36V26.5Z" transform="translate(-25.8 -24.9)"/><path class="cls-2" d="M29,28.11v85c7.7,132.68,104.23,180.18,113.78,184.54,101.36-64.45,112.33-150.49,112.33-184.54v-85ZM143.08,301.23l-.77-.32C141.23,300.46,34,254.13,25.8,113.17V24.9H258.33v88.18c0,34.67-11.16,122.36-114.54,187.72l-.71.44Z" transform="translate(-25.8 -24.9)"/><path class="cls-3" d="M203.09,141.33s-2,6.5-11.15-.18l-31.22-.75s-4.09,1.3-4.65-3c0,0,.74-8.55.37-9.29,0,0,.19-2.41-3.9-2.41,0,0-6.32.74-6.51-4.83,0,0-1.12-6,7.62-5.76,0,0,2.79,1.3,3-2.23,0,0-.37-24.15-.19-26,0,0,.74-2.23-3.53-2.6,0,0-6.13,1.3-6.87-2.78,0,0-.37-6.14,3.72-6.51,0,0,5,.37,5.95-.93,0,0,1.11.74.93-3.71l.19-7.62s.56-2,3.72-1.86c0,0,5.76.37,6.5-.18a23.58,23.58,0,0,0,1.67-2.42s3-.18,3.53.56c0,0,4.46,3,21.37,1.86,0,0,2.6,0,3.15.74,0,0,3.16,2.41,5-.19,0,0,2.79-.56,11.15-.37,0,0,9.11,2.42,15.42-2.78l2,.37s2.6,4.28,4.46,3c0,0,5.57-.56,6.5.55,0,0,1.86,2.79.93,10,0,0-1.11,3.16,4.27,3.16,0,0,6.13-1.11,5.39,4.65,0,0,1.67,6.5-8.55,5.57,0,0-1.3,1.86-1.11,3.16,0,0-.18,21.18-.37,23.6,0,0-.18,3.34,4.27,3.16,0,0,5.94-.38,6.13,5,0,0,.74,7.06-7.81,5.76,0,0-2.6.37-3,2l-.37,9.29s.18,4.65-5,3.53c-.74,0-29,.56-31.4-.19,0,0-1.3-.18-1.68.56Z" transform="translate(-25.8 -24.9)"/><path class="cls-3" d="M142.76,172.83a3.48,3.48,0,0,0,1.67-1.49s3.9-.37,4.46-.92l12.27.92s12.07.93,17.28-2.79a9.56,9.56,0,0,1,3.16.56s2.6.56,3.34,1.67l7.06-.19s4.09,1.3,3.71,3.91v3.34s-.74,6.69,1.12,7.06h5.39s4.46,2,3.9,4.65A4.38,4.38,0,0,1,202.4,194s-3.9,1.11-5.2.93a8,8,0,0,0-1.49,3.72L195.16,223s-.37,2.6,3.53,2.24c0,0,5.76-.56,7.43,2.6,0,0,1.48,5.39-1.49,6.32l-2.23,1.11-4.83.74s-2,.19-2.23,3.71v6.5s.19,4.46-3.34,4.46l-5.2.37s-1.3,1.11-3.9.37c0,0-31.59.56-32.7.19l-3.72.74s-4.09,3.71-7.43.92l-2.6-2a9,9,0,0,1-2.6.19c-.74-.19-34.93.38-34.93.38s-7.25.75-7.8-1.68c0,0-.93-9.47-.56-10.59,0,0,0-2.79-1.67-3,0,0-7.25-.37-7.44-1.12,0,0-3.9-2.78-2.79-5.57a6.45,6.45,0,0,1,5.21-4.09s5.94.93,5.94-.74a10.32,10.32,0,0,0,.37-3s.37-22.11.19-23.6c0,0,.56-2.79-1.86-2.79,0,0-2.6.73-4.27-.38,0,0-4.46.19-5.38-3.35a5.41,5.41,0,0,1,.37-4.09s2-4.09,8-2.78c0,0,3.34.92,3.72-1.49l-.19-8.92s-.74-2.41,3.9-3.72c0,0,5.95,1.67,7.8-1.3,0,0,2-4.09,3.71-1.3,0,0,3.53,3.34,13.19,3,0,0,16.72-1.3,17.1-.56,0,0,4.09.56,5.2,1.86l1.12.19Z" transform="translate(-25.8 -24.9)"/><path class="cls-3" d="M92,141.78s-2,6.5-11.15-.19l-31.22-.74s-4.09,1.3-4.64-3c0,0,.74-8.55.37-9.29,0,0,.19-2.42-3.9-2.42,0,0-6.32.75-6.5-4.83,0,0-1.12-5.95,7.62-5.76,0,0,2.79,1.3,3-2.23,0,0-.37-24.16-.19-26,0,0,.75-2.23-3.53-2.6,0,0-6.13,1.3-6.87-2.79,0,0-.37-6.13,3.72-6.5,0,0,5,.37,5.94-.93,0,0,1.12.74.93-3.72l.18-7.62s.56-2,3.72-1.86c0,0,5.76.37,6.5-.19a23.07,23.07,0,0,0,1.67-2.41s3-.19,3.53.56c0,0,4.46,3,21.37,1.86,0,0,2.6,0,3.16.75,0,0,3.16,2.41,5-.19,0,0,2.78-.56,11.15-.37,0,0,9.1,2.41,15.42-2.79l2,.37s2.6,4.27,4.46,3c0,0,5.58-.56,6.5.56,0,0,1.86,2.79.93,10,0,0-1.12,3.16,4.28,3.16,0,0,6.13-1.12,5.39,4.65,0,0,1.67,6.5-8.55,5.58,0,0-1.3,1.86-1.11,3.16,0,0-.19,21.18-.37,23.6,0,0-.18,3.34,4.27,3.16,0,0,5.94-.37,6.13,5,0,0,.74,7.06-7.8,5.76,0,0-2.6.38-3,2l-.37,9.29s.19,4.65-5,3.53c-.74,0-29,.56-31.4-.18,0,0-1.3-.19-1.68.56Z" transform="translate(-25.8 -24.9)"/><path class="cls-2" d="M203.09,141.33s-2,6.5-11.15-.18l-31.22-.75s-4.09,1.3-4.65-3c0,0,.74-8.55.37-9.29,0,0,.19-2.41-3.9-2.41,0,0-6.32.74-6.51-4.83,0,0-1.12-6,7.62-5.76,0,0,2.79,1.3,3-2.23,0,0-.37-24.15-.19-26,0,0,.74-2.23-3.53-2.6,0,0-6.13,1.3-6.87-2.78,0,0-.37-6.14,3.72-6.51,0,0,5,.37,5.95-.93,0,0,1.11.74.93-3.71l.19-7.62s.56-2,3.72-1.86c0,0,5.76.37,6.5-.18a23.58,23.58,0,0,0,1.67-2.42s3-.18,3.53.56c0,0,4.46,3,21.37,1.86,0,0,2.6,0,3.15.74,0,0,3.16,2.41,5-.19,0,0,2.79-.56,11.15-.37,0,0,9.11,2.42,15.42-2.78l2,.37s2.6,4.28,4.46,3c0,0,5.57-.56,6.5.55,0,0,1.86,2.79.93,10,0,0-1.11,3.16,4.27,3.16,0,0,6.13-1.11,5.39,4.65,0,0,1.67,6.5-8.55,5.57,0,0-1.3,1.86-1.11,3.16,0,0-.18,21.18-.37,23.6,0,0-.18,3.34,4.27,3.16,0,0,5.94-.38,6.13,5,0,0,.74,7.06-7.81,5.76,0,0-2.6.37-3,2l-.37,9.29s.18,4.65-5,3.53c-.74,0-29,.56-31.4-.19,0,0-1.3-.18-1.68.56Z" transform="translate(-25.8 -24.9)"/><path class="cls-4" d="M203.09,141.33s-2,6.5-11.15-.18l-31.22-.75s-4.09,1.3-4.65-3c0,0,.74-8.55.37-9.29,0,0,.19-2.41-3.9-2.41,0,0-6.32.74-6.51-4.83,0,0-1.12-6,7.62-5.76,0,0,2.79,1.3,3-2.23,0,0-.37-24.15-.19-26,0,0,.74-2.23-3.53-2.6,0,0-6.13,1.3-6.87-2.78,0,0-.37-6.14,3.72-6.51,0,0,5,.37,5.95-.93,0,0,1.11.74.93-3.71l.19-7.62s.56-2,3.72-1.86c0,0,5.76.37,6.5-.18a23.58,23.58,0,0,0,1.67-2.42s3-.18,3.53.56c0,0,4.46,3,21.37,1.86,0,0,2.6,0,3.15.74,0,0,3.16,2.41,5-.19,0,0,2.79-.56,11.15-.37,0,0,9.11,2.42,15.42-2.78l2,.37s2.6,4.28,4.46,3c0,0,5.57-.56,6.5.55,0,0,1.86,2.79.93,10,0,0-1.11,3.16,4.27,3.16,0,0,6.13-1.11,5.39,4.65,0,0,1.67,6.5-8.55,5.57,0,0-1.3,1.86-1.11,3.16,0,0-.18,21.18-.37,23.6,0,0-.18,3.34,4.27,3.16,0,0,5.94-.38,6.13,5,0,0,.74,7.06-7.81,5.76,0,0-2.6.37-3,2l-.37,9.29s.18,4.65-5,3.53c-.74,0-29,.56-31.4-.19,0,0-1.3-.18-1.68.56Z" transform="translate(-25.8 -24.9)"/><path class="cls-3" d="M168,64.77s.37,3.72.37,4.65-.56,53.7-.56,53.7a6.38,6.38,0,0,1-3,6.13s-.93.38-1.11-2.23l.37-55.74s.37-6.88,3.9-6.51Z" transform="translate(-25.8 -24.9)"/><path class="cls-5" d="M168,64.77s.37,3.72.37,4.65-.56,53.7-.56,53.7a6.38,6.38,0,0,1-3,6.13s-.93.38-1.11-2.23l.37-55.74s.37-6.88,3.9-6.51Z" transform="translate(-25.8 -24.9)"/><path class="cls-3" d="M161.85,129.81s.37-52.4.19-53.32.18.74.18.74-.55-9.1,1.86-12.82c0,0-.74-3.16-5,.74l-.18,7.62s0,4.27-3.9,4.09c0,0-4.46-.18-6.5,1.86,0,0-1.12,4.09,3.16,3.34,0,0,6.69,0,7.06,2.79l-.37,28.05s1.48,4.65-3.72,4.65c0,0-6.32-.37-6.13,3.53,0,0,1.3,3.34,6.69,2.23,0,0,3.9.74,3.71,4.46v7.06s-.37,2.79,3.34,3h29s1.49.18,1.49-1.68c0,0-.19-1.48-2.42-1.48l-24.16-.37s-3.9,1.3-4.27-4.46Z" transform="translate(-25.8 -24.9)"/><path class="cls-3" d="M166.86,130.18s-.75,2.6,2,2H188l5.21,1.12s5.39-1.3,0-4.27c0,0-17.09.18-18.58-.19l-4.28-1.12s-1.86-.74-3.53,2.42Z" transform="translate(-25.8 -24.9)"/><path class="cls-5" d="M166.86,130.18s-.75,2.6,2,2H188l5.21,1.12s5.39-1.3,0-4.27c0,0-17.09.18-18.58-.19l-4.28-1.12s-1.86-.74-3.53,2.42Z" transform="translate(-25.8 -24.9)"/><path class="cls-3" d="M198.64,132.78s-3.53,0-3.34,4.65a4,4,0,0,0,4.09,3.53,3.71,3.71,0,0,0,3-4.27s-2-4.65-3.71-3.9Z" transform="translate(-25.8 -24.9)"/><path class="cls-3" d="M201.24,130.92s1.67-1.85,2.78-1.85c0,0,18.59,1.67,21.74-.56,0,0,2.78-.56,3.53,0,0,0,2.79,2.23,2.79,3.53,0,0-.18,1.67-3.53.74l-22.11.19s-5.76,1.3-5.2-2Z" transform="translate(-25.8 -24.9)"/><path class="cls-5" d="M201.24,130.92s1.67-1.85,2.78-1.85c0,0,18.59,1.67,21.74-.56,0,0,2.78-.56,3.53,0,0,0,2.79,2.23,2.79,3.53,0,0-.18,1.67-3.53.74l-22.11.19s-5.76,1.3-5.2-2Z" transform="translate(-25.8 -24.9)"/><path class="cls-3" d="M204.21,136.49s0-1.49,2.6-1.49l26-.18s2.41,1.3,2.41-3.16c0,0,1-20.26,1-42.56,0-6.62.32-13.59.07-20.06,0,0-.56-2.79-1.3-3.34,0,0,0-3,3.16-1.86,0,0,2.79.19,2,4.46l.18,6.51s-.56,2.79,4.46,2c0,0,5,.75,5.2,2.6,0,0,1.49,3.72-4.46,3.35h-4.27a3.06,3.06,0,0,0-1.3,3.34l-.56,26.94s-.37,4.65,4.09,4.46c0,0,4.65-.18,5.57,1.3,0,0,3.16,4.64-3.71,4.28,0,0-4.27-.19-5.2.56,0,0-.75.93-1.3,9.66,0,0,.37,5.21-3.53,4.65,0,0-25.83.37-28.24-.18,0,0-2.6.74-3-1.3Z" transform="translate(-25.8 -24.9)"/><path class="cls-3" d="M170.77,63.09l-.56,59.65s-.19,2.78,4.46,3.34c0,0,5.39.56,6.69,0,0,0,3.53-.19,12.63.19,0,0,2.23,2.23,2.42-.56,0,0,1.48-48.31.75-58.34,0,0-.19-4.27-3.35-4.46,0,0-14.12,1.12-15.42,0l-5.58-1.49s-2.23.19-2,1.67Z" transform="translate(-25.8 -24.9)"/><path class="cls-3" d="M200.12,66.06s-.56,28.06-.37,29l-.37,23.6-.74,8.17s1.11,1.67,2,.56c0,0,5.95-1.49,9.66-.93,0,0,11.89,1.11,14.31-.75,0,0,1.86.93,2.41-2,0,0,.75-52,.37-53,0,0,.74-7.43.37-8.18,0,0-.18-1.67-3.35-.18,0,0,.37,1.48-17.28.93,0,0-6.69-.18-7.06,2.79Z" transform="translate(-25.8 -24.9)"/><path class="cls-3" d="M229.67,65.33,229.48,124s1.49,5.2,3.9,4.65a15,15,0,0,0,.55-3l.75-55.93s-1.86-8.92-5-4.46Z" transform="translate(-25.8 -24.9)"/><path class="cls-5" d="M229.67,65.33,229.48,124s1.49,5.2,3.9,4.65a15,15,0,0,0,.55-3l.75-55.93s-1.86-8.92-5-4.46Z" transform="translate(-25.8 -24.9)"/><path class="cls-2" d="M206.86,82.91c-.56-1.49,3.16-1.67,3.16-1.67l1.85.37a5.56,5.56,0,0,1,2.6.37,2.15,2.15,0,0,1-.93,3.16l-.74,2.41c-.18,2,0,19.69,0,19.69a13.51,13.51,0,0,0,1.86,2.6c0,1.67-2,1.3-2,1.3l-5.39.18c-1.67-.18-1.12-2-1.12-2,1.86-.93,2.42-4.28,2.42-4.28V86.62l-1.67-3.71Z" transform="translate(-25.8 -24.9)"/><path class="cls-2" d="M182,85.51c.19,4.09.19,9.66.19,9.66,3.53,2.79,5.57-1.11,5.57-1.11,4.65-4.46,0-8.54-.74-9.66s-4.46-.19-4.46-.19l-.56,1.3Zm-.19,14.68-.37,5.76,1.67,2.79c1.12,1.49-.75,2.6-.75,2.6l-5.95-.56c-1.11-.55,0-2.41,0-2.41,1.49-.92,1.67-3.34,1.67-3.34l-.19-10.77.19-7.8c0-.93-1.49-2.6-1.49-2.6-1.3-.18-.93-1.86-.93-1.86.37-.93,3.53-.37,3.53-.37H187c7.43,2.41,6.32,7.8,6.32,7.8.56,5.39-5.2,7.62-5.2,7.62l-.37,3,5.39,8.55c.93.75.74,1.48.74,1.48-.74,2-3.71,0-3.71,0l-6.69-10.4c-.55-.74-1.67.56-1.67.56Z" transform="translate(-25.8 -24.9)"/><path class="cls-2" d="M142.76,172.83a3.48,3.48,0,0,0,1.67-1.49s3.9-.37,4.46-.92l12.27.92s12.07.93,17.28-2.79a9.56,9.56,0,0,1,3.16.56s2.6.56,3.34,1.67l7.06-.19s4.09,1.3,3.71,3.91v3.34s-.74,6.69,1.12,7.06h5.39s4.46,2,3.9,4.65A4.38,4.38,0,0,1,202.4,194s-3.9,1.11-5.2.93a8,8,0,0,0-1.49,3.72L195.16,223s-.37,2.6,3.53,2.24c0,0,5.76-.56,7.43,2.6,0,0,1.48,5.39-1.49,6.32l-2.23,1.11-4.83.74s-2,.19-2.23,3.71v6.5s.19,4.46-3.34,4.46l-5.2.37s-1.3,1.11-3.9.37c0,0-31.59.56-32.7.19l-3.72.74s-4.09,3.71-7.43.92l-2.6-2a9,9,0,0,1-2.6.19c-.74-.19-34.93.38-34.93.38s-7.25.75-7.8-1.68c0,0-.93-9.47-.56-10.59,0,0,0-2.79-1.67-3,0,0-7.25-.37-7.44-1.12,0,0-3.9-2.78-2.79-5.57a6.45,6.45,0,0,1,5.21-4.09s5.94.93,5.94-.74a10.32,10.32,0,0,0,.37-3s.37-22.11.19-23.6c0,0,.56-2.79-1.86-2.79,0,0-2.6.73-4.27-.38,0,0-4.46.19-5.38-3.35a5.41,5.41,0,0,1,.37-4.09s2-4.09,8-2.78c0,0,3.34.92,3.72-1.49l-.19-8.92s-.74-2.41,3.9-3.72c0,0,5.95,1.67,7.8-1.3,0,0,2-4.09,3.71-1.3,0,0,3.53,3.34,13.19,3,0,0,16.72-1.3,17.1-.56,0,0,4.09.56,5.2,1.86l1.12.19Z" transform="translate(-25.8 -24.9)"/><path class="cls-4" d="M142.76,172.83a3.48,3.48,0,0,0,1.67-1.49s3.9-.37,4.46-.92l12.27.92s12.07.93,17.28-2.79a9.56,9.56,0,0,1,3.16.56s2.6.56,3.34,1.67l7.06-.19s4.09,1.3,3.71,3.91v3.34s-.74,6.69,1.12,7.06h5.39s4.46,2,3.9,4.65A4.38,4.38,0,0,1,202.4,194s-3.9,1.11-5.2.93a8,8,0,0,0-1.49,3.72L195.16,223s-.37,2.6,3.53,2.24c0,0,5.76-.56,7.43,2.6,0,0,1.48,5.39-1.49,6.32l-2.23,1.11-4.83.74s-2,.19-2.23,3.71v6.5s.19,4.46-3.34,4.46l-5.2.37s-1.3,1.11-3.9.37c0,0-31.59.56-32.7.19l-3.72.74s-4.09,3.71-7.43.92l-2.6-2a9,9,0,0,1-2.6.19c-.74-.19-34.93.38-34.93.38s-7.25.75-7.8-1.68c0,0-.93-9.47-.56-10.59,0,0,0-2.79-1.67-3,0,0-7.25-.37-7.44-1.12,0,0-3.9-2.78-2.79-5.57a6.45,6.45,0,0,1,5.21-4.09s5.94.93,5.94-.74a10.32,10.32,0,0,0,.37-3s.37-22.11.19-23.6c0,0,.56-2.79-1.86-2.79,0,0-2.6.73-4.27-.38,0,0-4.46.19-5.38-3.35a5.41,5.41,0,0,1,.37-4.09s2-4.09,8-2.78c0,0,3.34.92,3.72-1.49l-.19-8.92s-.74-2.41,3.9-3.72c0,0,5.95,1.67,7.8-1.3,0,0,2-4.09,3.71-1.3,0,0,3.53,3.34,13.19,3,0,0,16.72-1.3,17.1-.56,0,0,4.09.56,5.2,1.86l1.12.19Z" transform="translate(-25.8 -24.9)"/><path class="cls-3" d="M147.59,245.86s2.23-1.12,3.72-.75,23.23-.18,23.23-.18,9.47.74,11-.55l2.23-.75a4.44,4.44,0,0,0,.93-2.59c0-1.49.19-6.5.19-6.5l.55-1.86s-.18-1.86,0-51.47c0,0,.75-3.9-1.67-6.32,0,0,0-1.49.74-1.3s.37.19.37.19,3.34-.93,3.9.37c0,0,1.49,4.46.19,7.06,0,0-.37,5.39,2.41,5.39a3.53,3.53,0,0,0,3.34.56s4.83.56,4.83,2c0,0,0,3.34-3.34,2.78l-4.46.37a3.46,3.46,0,0,0-2.6,4.09c.37,3.54-.19,28.81-.19,28.81s0,3,4.64,2.79c0,0,5.76-.19,5.76,1.49,0,0,1.48,3.71-2.6,3.9,0,0-7.8-.19-7.24,2a55.41,55.41,0,0,1-.93,6.13s.74,4.28-.19,5c0,0-.55,2.42-5.57,2,0,0-32-.18-37,.19,0,0-3-.37-2.23-3Z" transform="translate(-25.8 -24.9)"/><path class="cls-3" d="M141.83,242.32s3.16.56,3.16,3.53.19,4.65-1.67,5-3.9-.19-4.46-2.6.37-5.39,3-5.95Z" transform="translate(-25.8 -24.9)"/><path class="cls-3" d="M145.55,240.84s3.34-2.22,4.64-1.86c0,0,16.91,1.11,22.11.19s2-.19,2-.19,4.46,0,5.76-1.67a1.82,1.82,0,0,1,2,.93l2.79,3s.19,1.86-3,1.67c0,0-30.29,0-31.21.18,0,0-5.76.92-5.2-2.23Z" transform="translate(-25.8 -24.9)"/><path class="cls-5" d="M145.55,240.84s3.34-2.22,4.64-1.86c0,0,16.91,1.11,22.11.19s2-.19,2-.19,4.46,0,5.76-1.67a1.82,1.82,0,0,1,2,.93l2.79,3s.19,1.86-3,1.67c0,0-30.29,0-31.21.18,0,0-5.76.92-5.2-2.23Z" transform="translate(-25.8 -24.9)"/><path class="cls-3" d="M101.51,174.88s1.3,0,1.12,2.23l-.37,56.11a6.89,6.89,0,0,1-2.61,6.13s-1.67,2-1.67-1.12L98.72,181s.19-4.28,2.79-6.13Z" transform="translate(-25.8 -24.9)"/><path class="cls-5" d="M101.51,174.88s1.3,0,1.12,2.23l-.37,56.11a6.89,6.89,0,0,1-2.61,6.13s-1.67,2-1.67-1.12L98.72,181s.19-4.28,2.79-6.13Z" transform="translate(-25.8 -24.9)"/><path class="cls-3" d="M98.54,175.25s-2.23,4.09-2,5l-.19,12.45s-.18,8,0,8.92S96.12,226,96.12,226s-.18,4.46,0,5.95v10s-.37,4.46,3,3.34c0,0,32.7-.74,34.75-.18,0,0,3,.56,1.85,2,0,0,0,1.3-2,.93a252.4,252.4,0,0,1-29.36.93s-9.29.56-9.85-.56c0,0-1.49-.19-1.49-5.57,0,0,0-5-.37-5.95,0,0,.37-2.6-4.27-3.16,0,0-6.5,1.11-6.69-2.79,0,0,.93-2.78,7.25-2.41,0,0,4.64.74,3.71-3l.56-27.49s.56-4.83-2.6-5a15.16,15.16,0,0,0-3.9.19s-5.39,0-5-3.16c0,0,1.85-3.34,7.25-2.6,0,0,4.08.74,4.27-3.9,0,0-.19-9.48,2-9.84,0,0,4.64.18,3.34,1.48Z" transform="translate(-25.8 -24.9)"/><path class="cls-3" d="M104.11,236.75a9.4,9.4,0,0,0,6.87,2.6l25.27.37s2.79.19,2.6,1.67c0,0-.37,2.23-3.72,1.49l-30.47-.37-3.34.18s-2.23-.38,1.3-4.65l1.49-1.3Z" transform="translate(-25.8 -24.9)"/><path class="cls-5" d="M104.11,236.75a9.4,9.4,0,0,0,6.87,2.6l25.27.37s2.79.19,2.6,1.67c0,0-.37,2.23-3.72,1.49l-30.47-.37-3.34.18s-2.23-.38,1.3-4.65l1.49-1.3Z" transform="translate(-25.8 -24.9)"/><path class="cls-3" d="M182.15,234.34s2.23,4.27,3.34,4.83c0,0,2,2.41,1.49-1.86l.37-53.51a11.14,11.14,0,0,1,0-4.82l-2.23-4.09s-2.41-1.86-2.41,1.11l-.37,57-.18,1.31Z" transform="translate(-25.8 -24.9)"/><path class="cls-5" d="M182.15,234.34s2.23,4.27,3.34,4.83c0,0,2,2.41,1.49-1.86l.37-53.51a11.14,11.14,0,0,1,0-4.82l-2.23-4.09s-2.41-1.86-2.41,1.11l-.37,57-.18,1.31Z" transform="translate(-25.8 -24.9)"/><path class="cls-3" d="M140.9,208.87a58.83,58.83,0,0,1-.37,8.73c-.3,2.33.75,13.19-.19,18.76,0,0-.18,1.86-4.09.19,0,0-23.78.56-24.52-.19,0,0-6.5.19-7.06-3.16,0,0,.93-25.45.37-26.39,0,0-.37-13.93,0-15.23,0,0,.56-12.82.19-14.31a14.51,14.51,0,0,0-.37-4.46s0-1.86,3.16-.74c0,0,1.11,2,7.24,1.11a34.16,34.16,0,0,0,8.73.19s9.47-.74,11.89,0a4.19,4.19,0,0,1,4.83,3.34l-.19,11.52,1.12,3.72,1.3-.93.56-2.79.19-12.26a4.34,4.34,0,0,1,3.72-2.6s4.64-.56,5.39-.19,10.78.93,13.56.37,3.34,1.86,11.7-2.42c0,0,2.23.19,2.23,1.67,0,0-.75,15.8,0,18.77,0,0,0,29-.56,31l.37,9.29s.37,4.09-6.13,4.46c0,0,4.09.56-21.56-.18a20.43,20.43,0,0,0-8.55,1.85s-.93-.19-.93-2.6a115.82,115.82,0,0,0,0-17.28l-.37-9.47-1.67.18Z" transform="translate(-25.8 -24.9)"/><path class="cls-2" d="M124.18,195.69s.56,13.75,0,15.6l-.18,3a6.82,6.82,0,0,0,1.86,2.79s.93,2.6-1.3,2.41a48.38,48.38,0,0,0-5.76-.18s-2.6,0,0-3.34c0,0,.93-1.3.74-4.65,0,0,0-15.6.37-16.54,0,0,.37-2-.93-2.6l-2.23.18-2.79,2.6s-.56,2.78-1.86-.18v-1.49l1.67-4.46,1.12-.19a12.38,12.38,0,0,0,3.16,1.49h8.73l3.16-1.49s1.3.19.93,1.86c0,0,.55,4.28-1.86,4.83a4.29,4.29,0,0,1-2.23-2.6s-2.42-1.3-2.6,3Z" transform="translate(-25.8 -24.9)"/><path class="cls-2" d="M165.24,190.67s-7.06-.56-7.25,7.06c0,0-.74,5.21,7.06,8.55,0,0,5.76,2.79,5.39,6.31,0,0-.74,6.32-6.88,3.16,0,0-3-1.48-2.79-3.16,0,0-.93-2-2-1.67,0,0-1.3.37-.74,6.5,0,0,0,2.41,2.79,0l1.49.37s5,4.09,9.29-.93c0,0,4.65-4.27,1.3-9.47a16.76,16.76,0,0,0-6.69-5.58s-4.09-1.85-5-5c0,0,1.3-5.58,6.32-2.6,0,0,1.86,2.22,3,2.6,0,0,1.49,0,1.11-3.35l-.37-2.79s-.37-2-3,0c0,0-2.42.93-3,0Z" transform="translate(-25.8 -24.9)"/><path class="cls-2" d="M139.6,199c-.18.93-1.48,6.13-1.48,6.13l1.12,1.86s3,.19,4.09.19,1.3-.92,1.3-1.85-2-6.5-2-6.5l-.93-1.12-2,1.3Zm3-12.26a4.31,4.31,0,0,1,1.49,2.79c3.72,9.84,6.88,24.16,6.88,24.16a13,13,0,0,0,2.6,3.34c3.16,1.11,0,2,0,2-1.3.55-5.57-.18-5.57-.18-2.23-.38-1.3-1.12-1.3-1.12.93-.93.18-4.64.18-4.64a12.49,12.49,0,0,0-1.85-3.91c-.74-.37-2,1.3-2,1.3s-2,.74-2.23,0-1.49-1.48-1.49-1.48c-2.23,0-3.16,5.57-3.16,5.57,1.3,4.64,0,3.9,0,3.9-1.11,1.49-4.65.38-4.65.38-1.67-.38-.55-1.68-.55-1.68a3.62,3.62,0,0,0,2.6-2.6c.93-1.3,6.88-25.46,6.88-25.46.56-1.11.93-3.35,2.23-2.41Z" transform="translate(-25.8 -24.9)"/><path class="cls-2" d="M92,141.78s-2,6.5-11.15-.19l-31.22-.74s-4.09,1.3-4.64-3c0,0,.74-8.55.37-9.29,0,0,.19-2.42-3.9-2.42,0,0-6.32.75-6.5-4.83,0,0-1.12-5.95,7.62-5.76,0,0,2.79,1.3,3-2.23,0,0-.37-24.16-.19-26,0,0,.75-2.23-3.53-2.6,0,0-6.13,1.3-6.87-2.79,0,0-.37-6.13,3.72-6.5,0,0,5,.37,5.94-.93,0,0,1.12.74.93-3.72l.18-7.62s.56-2,3.72-1.86c0,0,5.76.37,6.5-.19a23.07,23.07,0,0,0,1.67-2.41s3-.19,3.53.56c0,0,4.46,3,21.37,1.86,0,0,2.6,0,3.16.75,0,0,3.16,2.41,5-.19,0,0,2.78-.56,11.15-.37,0,0,9.1,2.41,15.42-2.79l2,.37s2.6,4.27,4.46,3c0,0,5.58-.56,6.5.56,0,0,1.86,2.79.93,10,0,0-1.12,3.16,4.28,3.16,0,0,6.13-1.12,5.39,4.65,0,0,1.67,6.5-8.55,5.58,0,0-1.3,1.86-1.11,3.16,0,0-.19,21.18-.37,23.6,0,0-.18,3.34,4.27,3.16,0,0,5.94-.37,6.13,5,0,0,.74,7.06-7.8,5.76,0,0-2.6.38-3,2l-.37,9.29s.19,4.65-5,3.53c-.74,0-29,.56-31.4-.18,0,0-1.3-.19-1.68.56Z" transform="translate(-25.8 -24.9)"/><path class="cls-4" d="M92,141.78s-2,6.5-11.15-.19l-31.22-.74s-4.09,1.3-4.64-3c0,0,.74-8.55.37-9.29,0,0,.19-2.42-3.9-2.42,0,0-6.32.75-6.5-4.83,0,0-1.12-5.95,7.62-5.76,0,0,2.79,1.3,3-2.23,0,0-.37-24.16-.19-26,0,0,.75-2.23-3.53-2.6,0,0-6.13,1.3-6.87-2.79,0,0-.37-6.13,3.72-6.5,0,0,5,.37,5.94-.93,0,0,1.12.74.93-3.72l.18-7.62s.56-2,3.72-1.86c0,0,5.76.37,6.5-.19a23.07,23.07,0,0,0,1.67-2.41s3-.19,3.53.56c0,0,4.46,3,21.37,1.86,0,0,2.6,0,3.16.75,0,0,3.16,2.41,5-.19,0,0,2.78-.56,11.15-.37,0,0,9.1,2.41,15.42-2.79l2,.37s2.6,4.27,4.46,3c0,0,5.58-.56,6.5.56,0,0,1.86,2.79.93,10,0,0-1.12,3.16,4.28,3.16,0,0,6.13-1.12,5.39,4.65,0,0,1.67,6.5-8.55,5.58,0,0-1.3,1.86-1.11,3.16,0,0-.19,21.18-.37,23.6,0,0-.18,3.34,4.27,3.16,0,0,5.94-.37,6.13,5,0,0,.74,7.06-7.8,5.76,0,0-2.6.38-3,2l-.37,9.29s.19,4.65-5,3.53c-.74,0-29,.56-31.4-.18,0,0-1.3-.19-1.68.56Z" transform="translate(-25.8 -24.9)"/><path class="cls-3" d="M56.87,65.23s.37,3.72.37,4.64-.56,53.7-.56,53.7a6.39,6.39,0,0,1-3,6.13s-.93.37-1.11-2.23L53,71.73s.37-6.87,3.9-6.5Z" transform="translate(-25.8 -24.9)"/><path class="cls-5" d="M56.87,65.23s.37,3.72.37,4.64-.56,53.7-.56,53.7a6.39,6.39,0,0,1-3,6.13s-.93.37-1.11-2.23L53,71.73s.37-6.87,3.9-6.5Z" transform="translate(-25.8 -24.9)"/><path class="cls-3" d="M50.74,130.26s.37-52.4.19-53.33.18.74.18.74S50.56,68.57,53,64.85c0,0-.74-3.16-5,.74l-.18,7.62s0,4.27-3.9,4.09c0,0-4.46-.19-6.5,1.86,0,0-1.12,4.09,3.16,3.34,0,0,6.69,0,7.06,2.79l-.37,28.06S48.7,118,43.5,118c0,0-6.32-.37-6.13,3.53,0,0,1.3,3.35,6.69,2.23,0,0,3.9.74,3.72,4.46v7.06s-.38,2.79,3.34,3h29s1.49.19,1.49-1.67c0,0-.19-1.48-2.42-1.48L55,134.72s-3.9,1.3-4.28-4.46Z" transform="translate(-25.8 -24.9)"/><path class="cls-3" d="M55.76,130.63s-.74,2.6,2,2H76.94l5.2,1.11s5.39-1.3,0-4.27c0,0-17.1.19-18.58-.18l-4.27-1.12s-1.86-.74-3.53,2.41Z" transform="translate(-25.8 -24.9)"/><path class="cls-5" d="M55.76,130.63s-.74,2.6,2,2H76.94l5.2,1.11s5.39-1.3,0-4.27c0,0-17.1.19-18.58-.18l-4.27-1.12s-1.86-.74-3.53,2.41Z" transform="translate(-25.8 -24.9)"/><path class="cls-3" d="M87.54,133.23s-3.53,0-3.35,4.65a4,4,0,0,0,4.09,3.53,3.71,3.71,0,0,0,3-4.27s-2-4.65-3.72-3.9Z" transform="translate(-25.8 -24.9)"/><path class="cls-3" d="M90.13,131.37s1.67-1.86,2.79-1.86c0,0,18.58,1.68,21.74-.56,0,0,2.79-.55,3.53,0,0,0,2.78,2.23,2.78,3.53,0,0-.18,1.68-3.53.75l-22.11.19s-5.76,1.3-5.2-2Z" transform="translate(-25.8 -24.9)"/><path class="cls-5" d="M90.13,131.37s1.67-1.86,2.79-1.86c0,0,18.58,1.68,21.74-.56,0,0,2.79-.55,3.53,0,0,0,2.78,2.23,2.78,3.53,0,0-.18,1.68-3.53.75l-22.11.19s-5.76,1.3-5.2-2Z" transform="translate(-25.8 -24.9)"/><path class="cls-3" d="M93.11,136.95s0-1.48,2.6-1.48l26-.19s2.41,1.3,2.41-3.16c0,0,1-20.26,1-42.56,0-6.62.32-13.59.07-20.05,0,0-.56-2.79-1.3-3.34,0,0,0-3,3.16-1.86,0,0,2.79.19,2,4.46l.19,6.51s-.56,2.78,4.46,2c0,0,5,.74,5.2,2.6,0,0,1.49,3.72-4.46,3.35h-4.28a3.07,3.07,0,0,0-1.3,3.34l-.55,26.94s-.37,4.64,4.09,4.46c0,0,4.65-.18,5.58,1.3,0,0,3.16,4.65-3.71,4.28,0,0-4.28-.19-5.2.55,0,0-.74.93-1.3,9.66,0,0,.37,5.21-3.53,4.65,0,0-25.83.37-28.24-.19,0,0-2.6.75-3-1.3Z" transform="translate(-25.8 -24.9)"/><path class="cls-3" d="M59.66,63.54l-.56,59.65s-.19,2.79,4.46,3.34c0,0,5.39.56,6.69,0,0,0,3.53-.19,12.63.19,0,0,2.23,2.23,2.42-.56,0,0,1.48-48.31.74-58.34,0,0-.19-4.27-3.34-4.46,0,0-14.12,1.11-15.42,0L61.7,61.87s-2.23.19-2,1.67Z" transform="translate(-25.8 -24.9)"/><path class="cls-3" d="M118.56,65.78l-.19,58.72s1.49,5.21,3.9,4.65a15.26,15.26,0,0,0,.56-3l.74-55.92s-1.86-8.92-5-4.46Z" transform="translate(-25.8 -24.9)"/><path class="cls-5" d="M118.56,65.78l-.19,58.72s1.49,5.21,3.9,4.65a15.26,15.26,0,0,0,.56-3l.74-55.92s-1.86-8.92-5-4.46Z" transform="translate(-25.8 -24.9)"/><path class="cls-3" d="M89,66.28s-.56,28.06-.37,29l-.37,23.6L87.54,127s1.12,1.67,2,.56c0,0,5.95-1.48,9.66-.93,0,0,11.89,1.11,14.31-.75,0,0,1.86.93,2.41-2,0,0,.75-52,.37-53,0,0,.74-7.43.37-8.18,0,0-.19-1.67-3.34-.19,0,0,.37,1.49-17.28.93,0,0-6.69-.19-7.06,2.79Z" transform="translate(-25.8 -24.9)"/><path class="cls-2" d="M83.29,83.46,81.62,87s-4.09,18-6.32,21.74c0,0-.37,3.72-3.53.74,0,0-7.25-22.85-7.62-23.6L61.74,84.2s-1.49-2,1.11-2.23l6.88.19S72,84,69,86.06c0,0,.37,3,4.27,14.31,0,0,1.12,4.27,2.41,1.11l3.72-13.19-1.11-3.9s-1.12-1.86.56-2c0,0,3.9-.37,4.46,1.12Z" transform="translate(-25.8 -24.9)"/><path class="cls-2" d="M94.07,86.44l-.18,19.7-.55,1.49s-1.86,2.41-.56,2.6c0,0-1.67,1.11,11.89,1.3,0,0,5.2.93,3.9-5.76,0,0-.56-2.41-2.42,1.12,0,0-.56,3-7.25,2a4.46,4.46,0,0,1-1.49-2.79V98s-.18-2,3-1.86c0,0,3.53,2.23,4.09,1.3,0,0,1.3-3,0-4.83,0,0-1.67-.18-1.86.55,0,0-1.11,2.23-4.27.93,0,0-1.49-3-.56-5.39,0,0-.37-4.65,2.79-4.27,0,0,3.72.74,4.09,1.86,0,0,.93,2.23,1.86-.38l-.93-3.16s-.55-1.3-1.48-.93c0,0-6.32.93-7.06.19l-5,.56a2.15,2.15,0,0,0,1.49,2.79,1.4,1.4,0,0,1,.56,1.12Z" transform="translate(-25.8 -24.9)"/></svg>