<svg id="Layer_1" data-name="Layer 1" xmlns="http://www.w3.org/2000/svg" viewBox="0 0 278.95 115.53"><defs><style>.cls-1{font-size:58px;font-family:ProximaNova-Extrabld, Proxima Nova;letter-spacing:0.01em;}.cls-1,.cls-3,.cls-5,.cls-6{font-weight:700;}.cls-2,.cls-5,.cls-6{font-size:24px;font-family:ProximaNova-Bold, Proxima Nova;}.cls-4{font-size:29px;font-family:ProximaNova-Black, Proxima Nova;}.cls-5{letter-spacing:0em;}.cls-6{letter-spacing:-0.1em;}</style></defs><title>signalbanner-quotable</title><g id="globe"><g id="_715-globe-toolbar_2x.png" data-name="715-globe-toolbar@2x.png"><path d="M67.19,19a47.5,47.5,0,1,0,47.5,47.5A47.49,47.49,0,0,0,67.19,19ZM54.4,25.25c-3.61,3.78-6.67,9.14-8.93,15.54A45.06,45.06,0,0,1,36.69,36,42.76,42.76,0,0,1,54.4,25.25ZM33.8,39.2A50.5,50.5,0,0,0,44.2,44.9a79.32,79.32,0,0,0-2.87,19.46H24.11A43,43,0,0,1,33.8,39.2ZM24.11,68.67H41.35a79.32,79.32,0,0,0,2.87,19.46,49.15,49.15,0,0,0-10.39,5.7A43,43,0,0,1,24.11,68.67ZM36.69,97a45.06,45.06,0,0,1,8.78-4.79,43.87,43.87,0,0,0,8.93,15.54A43.16,43.16,0,0,1,36.69,97ZM65,109.46c-6.52-1.29-12.16-8.4-15.66-18.66A57.93,57.93,0,0,1,65,88.18Zm0-25.59A61.74,61.74,0,0,0,48.13,86.7a78.68,78.68,0,0,1-2.49-18H65Zm0-19.53H45.64a78.68,78.68,0,0,1,2.49-18A61.74,61.74,0,0,0,65,49.13v15.2Zm0-19.51A58.67,58.67,0,0,1,49.37,42.2C52.86,31.94,58.5,24.83,65,23.54Zm45.24,19.51H93a79.32,79.32,0,0,0-2.87-19.46,49.15,49.15,0,0,0,10.39-5.7A43,43,0,0,1,110.26,64.33ZM97.68,36a45.06,45.06,0,0,1-8.78,4.79A43.87,43.87,0,0,0,80,25.23,43.16,43.16,0,0,1,97.68,36ZM69.35,23.54C75.87,24.83,81.51,31.94,85,42.2a57.93,57.93,0,0,1-15.66,2.62Zm0,25.59A61.74,61.74,0,0,0,86.24,46.3a78.68,78.68,0,0,1,2.49,18H69.35Zm0,19.53H88.73a78.68,78.68,0,0,1-2.49,18,61.74,61.74,0,0,0-16.89-2.83V68.67Zm0,40.79V88.18A58.67,58.67,0,0,1,85,90.8C81.51,101.06,75.87,108.17,69.35,109.46ZM80,107.75c3.61-3.78,6.67-9.14,8.93-15.54A45.06,45.06,0,0,1,97.68,97,42.64,42.64,0,0,1,80,107.75Zm20.6-13.95a50.5,50.5,0,0,0-10.39-5.7A79.32,79.32,0,0,0,93,68.65h17.21A43,43,0,0,1,100.57,93.8Z" transform="translate(-19.69 -10.6)"/></g></g><text class="cls-1" transform="translate(103.91 48.31) scale(1.04 1)">Signal</text><text class="cls-2" transform="translate(102.68 79.99)"><tspan class="cls-3">Human Security</tspan><tspan class="cls-4"><tspan x="28.05" y="24">+</tspan><tspan class="cls-5" x="42.84" y="22"> </tspan><tspan class="cls-6" x="48.98" y="22">T</tspan><tspan class="cls-5" x="60.6" y="22">echnology</tspan></tspan></text></svg>